# AST/ASF file generated using VICON BodyLanguage
# -----------------------------------------------
:version 1.10
:name VICON
:units
  mass 1.0
  length 0.45
  angle deg
:documentation
   .ast/.asf automatically generated from VICON data using
   VICON BodyBuilder and BodyLanguage model FoxedUp or BRILLIANT.MOD
:root
   order TX TY TZ RX RY RZ
   axis XYZ
   position 0 0 0  
   orientation 0 0 0 
:bonedata
  begin
     id 1 
     name lhipjoint
     direction 0.602128 -0.715006 0.355257 
     length 2.21237 
     axis 0 0 0  XYZ
  end
  begin
     id 2 
     name lfemur
     direction 0.34202 -0.939693 0  
     length 6.71649  
     axis 0 0 20  XYZ
    dof rx ry rz
    limits (-160.0 20.0)
           (-70.0 70.0)
           (-60.0 70.0)
  end
  begin
     id 3 
     name ltibia
     direction 0.34202 -0.939693 0   
     length 6.97123   
     axis 0 0 20   XYZ
    dof rx
    limits (-10.0 170.0)
  end
  begin
     id 4 
     name lfoot
     direction 0.0655697 -0.180151 0.981451   
     length 1.80924   
     axis -90 7.62852e-016 20   XYZ
    dof rx rz
    limits (-45.0 90.0)
           (-70.0 20.0)
  end
  begin
     id 5 
     name ltoes
     direction 1.53545e-011 -4.21827e-011 1   
     length 0.916331   
     axis -90 7.62852e-016 20   XYZ
    dof rx
    limits (-90.0 20.0)
  end
  begin
     id 6 
     name rhipjoint
     direction -0.625414 -0.698792 0.347201   
     length 2.2637  
     axis 0 0 0  XYZ 
  end
  begin
     id 7 
     name rfemur
     direction -0.34202 -0.939693 0   
     length 7.07595   
     axis 0 0 -20   XYZ
    dof rx ry rz
    limits (-160.0 20.0)
           (-70.0 70.0)
           (-70.0 60.0)
  end
  begin
     id 8 
     name rtibia
     direction -0.34202 -0.939693 0   
     length 7.22924   
     axis 0 0 -20   XYZ
    dof rx
    limits (-10.0 170.0)
 end
 begin
     id 9 
     name rfoot
     direction -0.0766747 -0.210662 0.974547   
     length 1.98482  
     axis -90 -7.62852e-016 -20   XYZ
    dof rx rz
    limits (-45.0 90.0)
           (-20.0 70.0)
  end
  begin
     id 10 
     name rtoes
     direction -1.53532e-011 -4.21867e-011 1   
     length 0.999842   
     axis -90 -7.62852e-016 -20   XYZ
    dof rx
    limits (-90.0 20.0)
  end
  begin
     id 11 
     name lowerback
     direction -0.0224668 0.997354 -0.0691422   
     length 2.09945   
     axis 0 0 0   XYZ
    dof rx ry rz
    limits (-20.0 45.0)
           (-30.0 30.0)
           (-30.0 30.0)
  end
  begin
     id 12 
     name upperback
     direction 0.0134698 0.998451 -0.0539888   
     length 2.09758   
     axis 0 0 0   XYZ
    dof rx ry rz
    limits (-20.0 45.0)
           (-30.0 30.0)
           (-30.0 30.0)
  end
  begin
     id 13 
     name thorax
     direction 0.0241905 0.99948 -0.0213333   
     length 2.10428   
     axis 0 0 0   XYZ
    dof rx ry rz
    limits (-20.0 45.0)
           (-30.0 30.0)
           (-30.0 30.0)
  end
  begin
     id 14 
     name lowerneck
     direction -0.00866847 0.995978 0.0891737   
     length 1.3959   
     axis 0 0 0   XYZ
    dof rx ry rz
    limits (-20.0 45.0)
           (-30.0 30.0)
           (-30.0 30.0)
  end
  begin
     id 15 
     name upperneck
     direction 0.0680679 0.992203 0.104404   
     length 1.39452   
     axis 0 0 0   XYZ
    dof rx ry rz
    limits (-20.0 45.0)
           (-30.0 30.0)
           (-30.0 30.0)
  end
  begin
     id 16
     name head
     direction 0.0242216 0.999358 0.0264054  
     length 1.40433  
     axis 0 0 0   XYZ
    dof rx ry rz
    limits (-20.0 45.0)
           (-30.0 30.0)
           (-30.0 30.0)
  end
  begin
     id 17 
     name lclavicle
     direction 0.929368 0.362991 -0.0671771  
     length 3.04887  
     axis 0 0 0   XYZ
    dof ry rz
    limits (-20.0 10.0)
           (0.0 20.0)
  end
  begin
     id 18 
     name lhumerus
     direction 1 -4.48967e-011 -7.13741e-028   
     length 4.77195   
     axis -180 -30 -90   XYZ
    dof rx ry rz
    limits (-60.0 90.0)
           (-90.0 90.0)
           (-90.0 90.0)
  end
  begin
     id 19
     name lradius
     direction 1 -4.48977e-011 3.60404e-027   
     length 2.98444   
     axis -180 -30 -90   XYZ
    dof rx
    limits (-10.0 170.0)
  end
  begin
     id 20
     name lwrist
     direction 1 -4.48997e-011 7.54877e-027   
     length 1.49222   
     axis -7.18178e-015 90 90   XYZ
    dof ry
    limits (-180.0 0.0)
 end
  begin
     id 21 
     name lhand
     direction 1 -4.489e-011 1.51105e-026   
     length 0.992285   
     axis -9.63605e-015 90 90   XYZ
    dof rx rz
    limits (-90.0 90.0)
           (-45.0 45.0)
  end
  begin
     id 22 
     name lfingers
     direction 1 -4.48998e-011 3.01948e-026   
     length 0.800006   
     axis -1.92718e-014 90 90   XYZ
    dof rx
    limits (0.0 90.0)
  end
  begin
     id 23
     name lthumb
     direction 0.707107 -6.34881e-011 0.707107   
     length 1.14865   
     axis -90 45 -3.53137e-014   XYZ
    dof rx rz
    limits (-45.0 45.0)
           (-45.0 45.0)
  end
  begin
     id 24 
     name rclavicle
     direction -0.945672 0.324529 0.0196374   
     length 3.4236  
     axis 0 0 0   XYZ 
    dof ry rz
    limits (-10.0 20.0)
           (-20.0 0.0)
  end
  begin
     id 25 
     name rhumerus
     direction -1 -4.4896e-011 1.02757e-029  
     length 4.62052   
     axis -180 30 90   XYZ
    dof rx ry rz
    limits (-90.0 60.0)
           (-90.0 90.0)
           (-90.0 90.0)
  end
  begin
     id 26 
     name rradius
     direction -1 -4.48982e-011 3.85962e-027   
     length 2.95332   
     axis -180 30 90   XYZ
    dof rx
    limits (-10.0 170.0)
  end
  begin
     id 27 
     name rwrist
     direction -1 -4.48961e-011 7.55118e-027   
     length 1.47666   
     axis -7.18178e-015 -90 -90   XYZ
    dof ry
    limits (-180.0 0.0)
  end
  begin
     id 28
     name rhand
     direction -1 -4.48984e-011 1.50994e-026   
     length 0.990956   
     axis -9.63605e-015 -90 -90   XYZ
    dof rx rz
    limits (-90.0 90.0)
           (-45.0 45.0)
  end
  begin
     id 29
     name rfingers
     direction -1 -4.4892e-011 3.02158e-026   
     length 0.798934   
     axis -1.92718e-014 -90 -90   XYZ
    dof rx
    limits (0.0 90.0)
  end
  begin
     id 30
     name rthumb
     direction -0.707107 -6.34916e-011 0.707107   
     length 1.14711   
     axis -90 -45 3.53137e-014   XYZ
    dof rx rz
    limits (-45.0 45.0)
           (-45.0 45.0)
  end
:hierarchy
  begin
    root lhipjoint rhipjoint lowerback
    lhipjoint lfemur
    lfemur ltibia
    ltibia lfoot
    lfoot ltoes
    rhipjoint rfemur
    rfemur rtibia
    rtibia rfoot
    rfoot rtoes
    lowerback upperback
    upperback thorax
    thorax lowerneck lclavicle rclavicle
    lowerneck upperneck
    upperneck head
    lclavicle lhumerus
    lhumerus lradius
    lradius lwrist
    lwrist lhand lthumb
    lhand lfingers
    rclavicle rhumerus
    rhumerus rradius
    rradius rwrist
    rwrist rhand rthumb
    rhand rfingers
  end

#!OML:ASF H:\ManfredObstacles\Project 1\Capture day 1\Session 1\Male.ASF
:FULLY-SPECIFIED
:DEGREES
266
root 0.0851605 16.3021 -3.17768 -173.462 -36.6385 -180.908
lowerback -12.0314 -0.567327 -4.66596
upperback 2.16342 -0.0206861 -0.395455
thorax 9.10509 -0.251559 2.20642
lowerneck -0.999464 -0.833745 -5.42675
upperneck 5.78916 -1.54139 8.13665
head 2.16688 -0.763175 3.61378
rclavicle -7.57867e-015 1.82882e-014
rhumerus -36.0518 -25.9804 -74.3436
rradius 24.1666
rwrist 36.6142
rhand -0.298092 -4.83032
rfingers 7.12502
rthumb 25.3048 -33.1718
lclavicle -7.57867e-015 1.82882e-014
lhumerus -37.0411 34.2981 67.9426
lradius 13.8861
lwrist -47.4941
lhand -7.31798 7.90453
lfingers 7.12502
lthumb 18.565 37.0386
rfemur -3.87967 -5.25917 19.8802
rtibia 46.635
rfoot -8.38218 8.13104
rtoes 10.2164
lfemur -25.9557 4.77082 -24.1221
ltibia 21.3013
lfoot 5.6246 -12.215
ltoes 8.42734
267
root -0.0935144 16.3306 -3.31114 -173.839 -36.7463 -180.295
lowerback -11.7988 -0.591338 -3.80181
upperback 2.08574 -0.204281 -0.271781
thorax 8.89095 -0.291186 1.81621
lowerneck -0.935229 -0.849808 -5.3929
upperneck 5.57065 -1.53974 8.01345
head 2.07987 -0.763819 3.56094
rclavicle -1.2101e-014 4.21423e-014
rhumerus -36.5397 -25.3685 -74.0616
rradius 24.5005
rwrist 36.0949
rhand 0.0512546 -4.82933
rfingers 7.12502
rthumb 25.6395 -33.123
lclavicle -1.2101e-014 4.21423e-014
lhumerus -35.8109 30.6572 70.5689
lradius 14.535
lwrist -43.6946
lhand -6.85343 8.54002
lfingers 7.12502
lthumb 19.0118 37.6309
rfemur -6.48149 -6.39023 19.8501
rtibia 51.546
rfoot -4.22891 7.00411
rtoes 13.4153
lfemur -25.162 5.87162 -24.0534
ltibia 21.3579
lfoot 5.28113 -13.5657
ltoes 9.74952
268
root -0.260386 16.3613 -3.45426 -173.724 -36.7683 -180.751
lowerback -11.4819 -0.721419 -4.05786
upperback 2.08976 -0.352715 -0.31436
thorax 8.72371 -0.372398 1.88768
lowerneck -0.792741 -0.861447 -5.27161
upperneck 5.25388 -1.52902 7.84175
head 1.94365 -0.760768 3.47333
rclavicle -2.41772e-014 -3.97569e-016
rhumerus -36.7972 -24.2227 -74.1141
rradius 24.8961
rwrist 35.2883
rhand 0.277043 -4.78204
rfingers 7.12502
rthumb 25.8557 -33.0444
lclavicle -2.41772e-014 -3.97569e-016
lhumerus -35.1459 28.5965 72.1028
lradius 15.1114
lwrist -41.7076
lhand -6.66043 8.73754
lfingers 7.12502
lthumb 19.1974 37.8101
rfemur -8.96282 -7.38004 18.9683
rtibia 56.2431
rfoot -0.363719 5.72812
rtoes 16.6194
lfemur -23.9901 6.6775 -24.7404
ltibia 21.1154
lfoot 4.93804 -14.5974
ltoes 10.909
269
root -0.416928 16.3843 -3.59542 -173.756 -36.5767 -180.946
lowerback -11.2319 -0.686767 -4.08366
upperback 2.15344 -0.3085 -0.383364
thorax 8.6451 -0.350125 1.83753
lowerneck -0.742839 -0.906157 -5.09781
upperneck 4.98578 -1.57648 7.82911
head 1.84717 -0.782713 3.43143
rclavicle -2.31833e-014 1.86858e-014
rhumerus -37.0109 -23.4962 -74.2529
rradius 25.3635
rwrist 34.6491
rhand 0.378027 -4.69287
rfingers 7.12502
rthumb 25.9524 -32.9411
lclavicle -2.31833e-014 1.86858e-014
lhumerus -34.2322 26.543 73.5214
lradius 15.4793
lwrist -39.995
lhand -6.925 8.58255
lfingers 7.12502
lthumb 18.9429 37.6801
rfemur -11.5056 -7.98772 18.4817
rtibia 60.5856
rfoot 3.12175 4.02087
rtoes 19.6314
lfemur -22.7494 7.13362 -25.0075
ltibia 20.7209
lfoot 4.51128 -15.1221
ltoes 11.7694
270
root -0.565849 16.3981 -3.73468 -173.834 -36.4931 -181.45
lowerback -10.8007 -0.706304 -4.40608
upperback 2.3476 -0.299489 -0.49799
thorax 8.60867 -0.362285 1.89908
lowerneck -0.854161 -0.937268 -5.20297
upperneck 4.79768 -1.60964 8.04578
head 1.81358 -0.795811 3.52546
rclavicle 2.11954e-014 3.97569e-016
rhumerus -37.0171 -22.9172 -74.4356
rradius 25.6856
rwrist 34.2658
rhand 0.285832 -4.68973
rfingers 7.12502
rthumb 25.8641 -32.9509
lclavicle 2.11954e-014 3.97569e-016
lhumerus -33.204 25.1041 74.5722
lradius 15.5297
lwrist -39.1296
lhand -7.39044 8.16025
lfingers 7.12502
lthumb 18.4953 37.301
rfemur -13.7364 -8.60365 17.8102
rtibia 64.3422
rfoot 3.3614 1.95373
rtoes 18.5525
lfemur -21.2405 7.46624 -25.471
ltibia 20.2694
lfoot 4.16799 -15.6379
ltoes 13.1244
271
root -0.69808 16.4103 -3.86949 -173.852 -36.5625 -182.049
lowerback -10.28 -0.909312 -5.07429
upperback 2.54663 -0.508086 -0.481273
thorax 8.54813 -0.501746 2.25708
lowerneck -0.928702 -0.922712 -5.38704
upperneck 4.59482 -1.56726 8.10791
head 1.76137 -0.774172 3.58214
rclavicle 5.11871e-015 8.54774e-015
rhumerus -36.7806 -22.3031 -74.5217
rradius 25.8261
rwrist 34.2162
rhand -0.115143 -4.65558
rfingers 7.12502
rthumb 25.4801 -32.9721
lclavicle 5.11871e-015 8.54774e-015
lhumerus -32.4238 25.3718 74.8558
lradius 15.4077
lwrist -39.9588
lhand -7.74187 7.68467
lfingers 7.12502
lthumb 18.1572 36.8572
rfemur -15.9479 -9.16505 17.2183
rtibia 67.5215
rfoot 0.592829 0.257142
rtoes 18.4443
lfemur -19.8782 7.63002 -25.9687
ltibia 19.9667
lfoot 3.692 -16.1016
ltoes 13.7077
272
root -0.833083 16.4035 -4.00041 -173.806 -36.8015 -182.448
lowerback -9.98744 -1.14638 -5.48673
upperback 2.68109 -0.79048 -0.431968
thorax 8.55699 -0.665193 2.49322
lowerneck -0.765848 -0.928414 -5.18791
upperneck 4.33196 -1.55155 7.83385
head 1.6373 -0.769503 3.44503
rclavicle -3.93097e-014 1.23246e-014
rhumerus -36.6563 -22.0417 -74.4008
rradius 25.9811
rwrist 34.2603
rhand -0.547169 -4.60512
rfingers 7.12502
rthumb 25.0662 -32.9801
lclavicle -3.93097e-014 1.23246e-014
lhumerus -31.571 25.2376 75.3909
lradius 15.4336
lwrist -40.3368
lhand -7.9844 7.55658
lfingers 7.12502
lthumb 17.9238 36.7506
rfemur -18.0741 -9.65965 16.9276
rtibia 69.6378
rfoot -1.61565 -0.529857
rtoes 19.5147
lfemur -18.7828 7.70009 -26.3427
ltibia 19.7627
lfoot 3.12027 -16.636
ltoes 13.541
273
root -0.965894 16.4031 -4.12863 -173.806 -37.179 -182.594
lowerback -9.78997 -1.30788 -5.57054
upperback 2.76836 -1.00957 -0.39494
thorax 8.55935 -0.779083 2.54295
lowerneck -0.440115 -0.980816 -4.70609
upperneck 4.05977 -1.60921 7.4591
head 1.48138 -0.803024 3.21872
rclavicle 2.38542e-014 3.18055e-015
rhumerus -36.7578 -22.5434 -73.9817
rradius 26.0925
rwrist 34.4782
rhand -0.73599 -4.58871
rfingers 7.12502
rthumb 24.8852 -32.9889
lclavicle 2.38542e-014 3.18055e-015
lhumerus -30.4455 23.8639 76.49
lradius 15.5534
lwrist -39.5147
lhand -8.31564 7.76896
lfingers 7.12502
lthumb 17.6051 36.9919
rfemur -20.3003 -9.99647 16.9341
rtibia 71.0297
rfoot -3.3664 -0.410088
rtoes 16.8042
lfemur -17.9089 7.73629 -26.4847
ltibia 19.7334
lfoot 2.6824 -17.2702
ltoes 14.0512
274
root -1.09549 16.4109 -4.26164 -174.005 -37.6726 -182.372
lowerback -9.68608 -1.46094 -5.3807
upperback 2.85723 -1.25065 -0.278476
thorax 8.61428 -0.891819 2.51899
lowerneck -0.501204 -1.06999 -5.09958
upperneck 4.25791 -1.76261 7.9731
head 1.58188 -0.88008 3.47223
rclavicle 3.78436e-014 7.55382e-015
rhumerus -37.0097 -23.2906 -73.4681
rradius 26.3146
rwrist 34.5963
rhand -0.756264 -4.68781
rfingers 7.12502
rthumb 24.8658 -33.0907
lclavicle 3.78436e-014 7.55382e-015
lhumerus -29.4256 23.4589 77.101
lradius 15.5741
lwrist -39.7003
lhand -8.45665 7.92293
lfingers 7.12502
lthumb 17.4694 37.158
rfemur -22.5493 -10.0553 17.2898
rtibia 71.5828
rfoot -5.52568 0.272738
rtoes 13.1765
lfemur -17.206 7.64661 -26.2649
ltibia 20.0209
lfoot 2.07179 -17.8951
ltoes 14.2165
275
root -1.22301 16.4136 -4.39643 -174.182 -38.0963 -182.124
lowerback -9.67685 -1.52267 -5.13333
upperback 2.95326 -1.37119 -0.158697
thorax 8.71928 -0.944151 2.48554
lowerneck -0.934084 -1.22003 -5.89818
upperneck 4.78263 -2.02047 8.87533
head 1.88319 -1.00223 3.94763
rclavicle -2.09966e-014 7.7526e-015
rhumerus -37.2443 -23.7994 -73.0346
rradius 26.5581
rwrist 34.0913
rhand -0.757614 -4.8546
rfingers 7.12502
rthumb 24.8645 -33.2576
lclavicle -2.09966e-014 7.7526e-015
lhumerus -28.3238 22.839 77.8176
lradius 15.6709
lwrist -39.6717
lhand -8.27049 7.93026
lfingers 7.12502
lthumb 17.6486 37.1493
rfemur -24.6371 -9.68826 17.6394
rtibia 71.4145
rfoot -7.58668 1.25177
rtoes 13.7341
lfemur -16.605 7.31304 -25.9915
ltibia 20.4357
lfoot 1.26239 -18.1928
ltoes 14.2908
276
root -1.34278 16.4015 -4.52802 -174.22 -38.5749 -181.98
lowerback -9.66379 -1.55123 -4.95058
upperback 3.03087 -1.43686 -0.091953
thorax 8.79761 -0.971012 2.44163
lowerneck -1.66178 -1.40922 -6.8035
upperneck 5.66107 -2.38373 10.3869
head 2.13909 -1.13783 4.18629
rclavicle 1.53064e-014 -4.77083e-015
rhumerus -37.4399 -24.3681 -72.647
rradius 26.7078
rwrist 33.4685
rhand -0.624318 -4.97346
rfingers 7.12502
rthumb 24.9923 -33.3588
lclavicle 1.53064e-014 -4.77083e-015
lhumerus -27.0439 21.0125 78.9816
lradius 15.9249
lwrist -38.4325
lhand -8.03157 7.96954
lfingers 7.12502
lthumb 17.8785 37.1677
rfemur -26.5979 -9.13998 17.9172
rtibia 70.6645
rfoot -9.59727 2.05736
rtoes 14.9809
lfemur -16.2255 6.81229 -25.7841
ltibia 21.0284
lfoot 0.621525 -18.3584
ltoes 15.8647
277
root -1.4611 16.383 -4.65517 -174.183 -39.2089 -181.991
lowerback -9.54872 -1.77433 -4.95997
upperback 3.09641 -1.74613 -0.0139454
thorax 8.8311 -1.12599 2.47709
lowerneck -1.99875 -1.56891 -7.01289
upperneck 5.95038 -2.63034 10.7616
head 2.30864 -1.24659 4.32746
rclavicle 6.89783e-014 -1.58034e-014
rhumerus -37.4951 -24.5494 -72.4865
rradius 26.7938
rwrist 33.033
rhand -0.552028 -5.06082
rfingers 7.12502
rthumb 25.0615 -33.4365
lclavicle 6.89783e-014 -1.58034e-014
lhumerus -26.0023 20.5796 79.6144
lradius 16.1535
lwrist -38.2619
lhand -7.86514 7.82779
lfingers 7.12502
lthumb 18.0386 37.0113
rfemur -28.3586 -8.71184 18.0104
rtibia 69.4369
rfoot -11.402 2.35415
rtoes 15.1729
lfemur -15.9444 6.36717 -25.7427
ltibia 21.779
lfoot -0.0751823 -18.7917
ltoes 17.0334
278
root -1.57785 16.3646 -4.78012 -174.142 -39.9292 -182.099
lowerback -9.32668 -2.08178 -5.09884
upperback 3.16996 -2.16198 0.106364
thorax 8.82905 -1.34105 2.61476
lowerneck -1.94618 -1.76143 -6.92155
upperneck 5.7862 -2.87304 10.649
head 2.27146 -1.36979 4.27003
rclavicle 3.08116e-015 -6.95746e-016
rhumerus -37.4963 -24.4187 -72.3897
rradius 26.7866
rwrist 32.7139
rhand -0.554798 -5.02833
rfingers 7.12502
rthumb 25.0589 -33.4044
lclavicle 3.08116e-015 -6.95746e-016
lhumerus -25.0601 19.9526 80.3753
lradius 16.5984
lwrist -37.6647
lhand -7.74872 7.68027
lfingers 7.12502
lthumb 18.1506 36.8534
rfemur -29.8564 -8.33229 17.947
rtibia 67.7791
rfoot -12.9939 1.89197
rtoes 14.9893
lfemur -15.6576 5.90653 -25.7811
ltibia 22.6321
lfoot -0.847401 -19.3056
ltoes 17.6786
279
root -1.68839 16.3418 -4.90919 -174.075 -40.6442 -182.263
lowerback -9.09827 -2.27695 -5.31111
upperback 3.25032 -2.41929 0.222345
thorax 8.82327 -1.4838 2.81788
lowerneck -1.78828 -2.02049 -6.89045
upperneck 5.44749 -3.20054 10.64
head 2.17488 -1.53879 4.25311
rclavicle -9.59136e-015 -2.78299e-015
rhumerus -37.6509 -24.4734 -72.1629
rradius 26.8288
rwrist 32.5112
rhand -0.330707 -5.02079
rfingers 7.12502
rthumb 25.2736 -33.3667
lclavicle -9.59136e-015 -2.78299e-015
lhumerus -24.0875 17.4052 81.7359
lradius 17.3342
lwrist -35.393
lhand -7.7744 7.65629
lfingers 7.12502
lthumb 18.1259 36.8317
rfemur -31.1604 -7.87109 17.7783
rtibia 65.7564
rfoot -14.5561 0.695281
rtoes 15.0837
lfemur -15.2733 5.21395 -25.7991
ltibia 23.3878
lfoot -1.45732 -19.482
ltoes 19.5522
